<svg width="204.000000" height="42.000000" viewBox="0 0 204 42" fill="none" xmlns="http://www.w3.org/2000/svg" xmlns:xlink="http://www.w3.org/1999/xlink">
	<desc>
			Created with Pixso.
	</desc>
	<defs>
		<clipPath id="clip125_1143">
			<rect id="Frame" rx="0.000000" width="23.000000" height="23.000000" transform="translate(9.500000 9.500000)" fill="white" fill-opacity="0"/>
		</clipPath>
		<clipPath id="clip125_1147">
			<rect id="Frame" rx="0.000000" width="23.000000" height="23.000000" transform="translate(63.500000 9.500000)" fill="white" fill-opacity="0"/>
		</clipPath>
		<clipPath id="clip125_1151">
			<rect id="Frame" rx="0.000000" width="23.000000" height="23.000000" transform="translate(117.500000 9.500000)" fill="white" fill-opacity="0"/>
		</clipPath>
		<clipPath id="clip125_1155">
			<rect id="Frame" rx="0.000000" width="23.000000" height="23.000000" transform="translate(171.500000 9.500000)" fill="white" fill-opacity="0"/>
		</clipPath>
	</defs>
	<circle id="Ellipse 5" cx="21.000000" cy="21.000000" r="21.000000" fill="#DFD2C9" fill-opacity="1.000000"/>
	<rect id="Frame" rx="0.000000" width="23.000000" height="23.000000" transform="translate(9.500000 9.500000)" fill="#FFFFFF" fill-opacity="0"/>
	<g clip-path="url(#clip125_1143)">
		<path id="Vector" d="M14 20.44L14 22.11C14 23.03 14.2 23.22 15.18 23.22L17.54 23.22L17.54 29.88C17.54 30.8 17.74 31 18.72 31L21.09 31C22.06 31 22.27 30.8 22.27 29.88L22.27 23.22L24.92 23.22C25.66 23.22 25.85 23.08 26.06 22.41L26.56 20.74C26.91 19.6 26.7 19.33 25.43 19.33L22.27 19.33L22.27 16.55C22.27 15.94 22.8 15.44 23.45 15.44L26.81 15.44C27.79 15.44 28 15.25 28 14.33L28 12.11C28 11.19 27.79 11 26.81 11L23.45 11C20.19 11 17.54 13.48 17.54 16.55L17.54 19.33L15.18 19.33C14.2 19.33 14 19.52 14 20.44Z" stroke="#000000" stroke-opacity="1.000000" stroke-width="1.500000" stroke-linejoin="round"/>
	</g>
	<circle id="Ellipse 5" cx="75.000000" cy="21.000000" r="21.000000" fill="#DFD2C9" fill-opacity="1.000000"/>
	<rect id="Frame" rx="0.000000" width="23.000000" height="23.000000" transform="translate(63.500000 9.500000)" fill="#FFFFFF" fill-opacity="0"/>
	<g clip-path="url(#clip125_1147)">
		<path id="Vector" d="M71 29C77.48 29 82.76 23.86 82.99 17.43L85 13.5L81.64 14C80.94 13.37 80.01 13 79 13C76.42 13 74.5 15.51 75.12 17.98C71.56 18.2 68.34 16.02 66.48 13.1C65.25 17.3 66.39 22.35 69.5 25.47C69.5 26.64 66.5 27.34 65 27.5C66.76 28.52 68.81 29 71 29Z" stroke="#000000" stroke-opacity="1.000000" stroke-width="1.500000" stroke-linejoin="round"/>
	</g>
	<circle id="Ellipse 5" cx="129.000000" cy="21.000000" r="21.000000" fill="#DFD2C9" fill-opacity="1.000000"/>
	<rect id="Frame" rx="0.000000" width="23.000000" height="23.000000" transform="translate(117.500000 9.500000)" fill="#FFFFFF" fill-opacity="0"/>
	<g clip-path="url(#clip125_1151)">
		<path id="Vector" d="M132.5 25L132.5 17.24C133.5 18.04 134.69 18.61 136 18.86C136.35 18.92 136.53 18.96 136.75 18.9C137 18.83 137.29 18.6 137.4 18.36C137.5 18.15 137.5 17.93 137.5 17.5C137.5 17.04 137.5 16.81 137.45 16.65C137.36 16.4 137.29 16.31 137.07 16.15C136.94 16.06 136.63 15.96 136.02 15.77C134.44 15.29 133.2 14.05 132.72 12.47C132.53 11.86 132.43 11.55 132.34 11.42C132.18 11.2 132.09 11.13 131.84 11.05C131.68 11 131.45 11 131 11C130.53 11 130.3 11 130.11 11.07C129.87 11.17 129.67 11.37 129.57 11.61C129.5 11.8 129.5 12.03 129.5 12.5L129.5 25C129.5 26.65 128.15 28 126.5 28C124.84 28 123.5 26.65 123.5 25C123.5 23.86 124.13 22.87 125.06 22.36C125.75 21.98 126.09 21.79 126.19 21.7C126.38 21.52 126.39 21.5 126.46 21.25C126.5 21.12 126.5 20.91 126.5 20.5C126.5 20.07 126.5 19.86 126.39 19.65C126.28 19.41 125.96 19.16 125.7 19.11C125.47 19.06 125.32 19.1 125.01 19.18C122.42 19.84 120.5 22.19 120.5 25C120.5 28.31 123.18 31 126.5 31C129.81 31 132.5 28.31 132.5 25Z" stroke="#000000" stroke-opacity="1.000000" stroke-width="1.500000" stroke-linejoin="round"/>
	</g>
	<circle id="Ellipse 5" cx="183.000000" cy="21.000000" r="21.000000" fill="#DFD2C9" fill-opacity="1.000000"/>
	<rect id="Frame" rx="0.000000" width="23.000000" height="23.000000" transform="translate(171.500000 9.500000)" fill="#FFFFFF" fill-opacity="0"/>
	<g clip-path="url(#clip125_1155)">
		<path id="Vector" d="M174.89 12.89C176.28 11.5 178.52 11.5 183 11.5C187.47 11.5 189.71 11.5 191.1 12.89C192.5 14.28 192.5 16.52 192.5 21C192.5 25.47 192.5 27.71 191.1 29.1C189.71 30.5 187.47 30.5 183 30.5C178.52 30.5 176.28 30.5 174.89 29.1C173.5 27.71 173.5 25.47 173.5 21C173.5 16.52 173.5 14.28 174.89 12.89Z" stroke="#000000" stroke-opacity="1.000000" stroke-width="1.500000" stroke-linejoin="round"/>
		<path id="Vector" d="M183 25.5C180.51 25.5 178.5 23.48 178.5 21C178.5 18.51 180.51 16.5 183 16.5C185.48 16.5 187.5 18.51 187.5 21C187.5 23.48 185.48 25.5 183 25.5Z" stroke="#000000" stroke-opacity="1.000000" stroke-width="1.500000"/>
		<path id="Vector" d="M188.5 15.5L188.49 15.5" stroke="#000000" stroke-opacity="1.000000" stroke-width="2.000000" stroke-linejoin="round" stroke-linecap="round"/>
	</g>
</svg>
