<svg width="24.000000" height="24.000000" viewBox="0 0 24 24" fill="none" xmlns="http://www.w3.org/2000/svg" xmlns:xlink="http://www.w3.org/1999/xlink">
	<desc>
			Created with Pixso.
	</desc>
	<defs>
		<clipPath id="clip125_1009">
			<rect id="Frame" rx="0.000000" width="23.000000" height="23.000000" transform="translate(0.500000 0.500000)" fill="white" fill-opacity="0"/>
		</clipPath>
	</defs>
	<rect id="Frame" rx="0.000000" width="23.000000" height="23.000000" transform="translate(0.500000 0.500000)" fill="#FFFFFF" fill-opacity="0"/>
	<g clip-path="url(#clip125_1009)">
		<path id="Vector" d="M14 12L4 12" stroke="#FFFFFF" stroke-opacity="1.000000" stroke-width="1.500000" stroke-linejoin="round" stroke-linecap="round"/>
		<path id="Vector" d="M17.61 14.36C16.05 15.59 15.27 16.21 14.63 15.93C14 15.65 14 14.68 14 12.76L14 11.23C14 9.31 14 8.34 14.63 8.06C15.27 7.78 16.05 8.4 17.61 9.63L18.58 10.39C19.52 11.14 20 11.51 20 12C20 12.48 19.52 12.85 18.58 13.6L17.61 14.36Z" stroke="#FFFFFF" stroke-opacity="1.000000" stroke-width="1.500000" stroke-linejoin="round"/>
	</g>
</svg>
